<svg width="13.942871" height="15.766602" viewBox="0 0 13.9429 15.7666" fill="none" xmlns="http://www.w3.org/2000/svg" xmlns:xlink="http://www.w3.org/1999/xlink">
	<desc>
			Created with Pixso.
	</desc>
	<defs/>
	<path d="M6.97 7.16C7.73 7.16 8.48 6.95 9.12 6.56C9.76 6.16 10.25 5.6 10.54 4.95C10.84 4.29 10.91 3.57 10.77 2.88C10.62 2.18 10.25 1.55 9.7 1.04C9.16 0.54 8.47 0.2 7.72 0.06C6.97 -0.07 6.19 0 5.48 0.27C4.78 0.54 4.17 1 3.75 1.59C3.32 2.18 3.09 2.87 3.09 3.58C3.09 4.53 3.5 5.44 4.23 6.11C4.96 6.78 5.94 7.16 6.97 7.16ZM6.97 1.43C7.43 1.43 7.88 1.55 8.26 1.79C8.64 2.03 8.94 2.36 9.11 2.76C9.29 3.15 9.34 3.58 9.25 4C9.16 4.41 8.93 4.8 8.61 5.1C8.28 5.4 7.87 5.6 7.42 5.69C6.97 5.77 6.5 5.73 6.08 5.56C5.65 5.4 5.29 5.13 5.03 4.77C4.78 4.42 4.64 4 4.64 3.58C4.64 3.01 4.89 2.46 5.32 2.06C5.76 1.66 6.35 1.43 6.97 1.43ZM0 15.04L0 12.18C0 11.23 0.4 10.32 1.13 9.65C1.86 8.97 2.84 8.6 3.87 8.59L10.06 8.59C11.09 8.6 12.08 8.97 12.8 9.65C13.53 10.32 13.94 11.23 13.94 12.18L13.94 15.04C13.94 15.24 13.86 15.42 13.71 15.55C13.57 15.69 13.37 15.76 13.16 15.76C12.96 15.76 12.76 15.69 12.62 15.55C12.47 15.42 12.39 15.24 12.39 15.04L12.39 12.18C12.39 11.61 12.14 11.06 11.71 10.66C11.27 10.25 10.68 10.03 10.06 10.03L3.87 10.03C3.25 10.03 2.66 10.25 2.22 10.66C1.79 11.06 1.54 11.61 1.54 12.18L1.54 15.04C1.54 15.24 1.46 15.42 1.32 15.55C1.17 15.69 0.97 15.76 0.77 15.76C0.56 15.76 0.37 15.69 0.22 15.55C0.08 15.42 0 15.24 0 15.04Z" fill="#FFFFFF" fill-opacity="1.000000" fill-rule="nonzero"/>
</svg>
